<svg xmlns="http://www.w3.org/2000/svg" viewBox="0 0 900 533" role="img" aria-label="Autores dos atos" font-family="Arial, Helvetica, sans-serif">
<rect width="100%" height="100%" fill="#fff"/>
<text x="32" y="38" font-size="24" font-weight="700" fill="#123">Autores dos atos</text>
<text x="32" y="64" font-size="14" fill="#475569">03/10/2025 a 30/09/2026; n=933 atos; fonte: PJe/TSE; NM_AUTOR_DECISAO não é relatoria</text>
<text x="286" y="111" font-size="15" text-anchor="end" fill="#123">NUNES MARQUES</text>
<rect x="300" y="92" width="440" height="28" rx="3" fill="#155e75"/>
<text x="748" y="112" font-size="15" fill="#123">297</text>
<text x="286" y="158" font-size="15" text-anchor="end" fill="#123">ANDRÉ MENDONÇA</text>
<rect x="300" y="139" width="354" height="28" rx="3" fill="#155e75"/>
<text x="662" y="159" font-size="15" fill="#123">239</text>
<text x="286" y="205" font-size="15" text-anchor="end" fill="#123">ESTELA ARANHA</text>
<rect x="300" y="186" width="194" height="28" rx="3" fill="#155e75"/>
<text x="502" y="206" font-size="15" fill="#123">131</text>
<text x="286" y="252" font-size="15" text-anchor="end" fill="#123">DIAS TOFFOLI</text>
<rect x="300" y="233" width="113" height="28" rx="3" fill="#155e75"/>
<text x="421" y="253" font-size="15" fill="#123">76</text>
<text x="286" y="299" font-size="15" text-anchor="end" fill="#123">ANTONIO CARLOS FERREIRA</text>
<rect x="300" y="280" width="96" height="28" rx="3" fill="#155e75"/>
<text x="404" y="300" font-size="15" fill="#123">65</text>
<text x="286" y="346" font-size="15" text-anchor="end" fill="#123">RICARDO VILLAS BÔAS CUEVA</text>
<rect x="300" y="327" width="86" height="28" rx="3" fill="#155e75"/>
<text x="394" y="347" font-size="15" fill="#123">58</text>
<text x="286" y="393" font-size="15" text-anchor="end" fill="#123">FLORIANO DE AZEVEDO MARQUES</text>
<rect x="300" y="374" width="64" height="28" rx="3" fill="#155e75"/>
<text x="372" y="394" font-size="15" fill="#123">43</text>
<text x="286" y="440" font-size="15" text-anchor="end" fill="#123">SEBASTIÃO REIS JUNIOR</text>
<rect x="300" y="421" width="34" height="28" rx="3" fill="#155e75"/>
<text x="342" y="441" font-size="15" fill="#123">23</text>
<text x="286" y="487" font-size="15" text-anchor="end" fill="#123">CÁRMEN LÚCIA</text>
<rect x="300" y="468" width="1" height="28" rx="3" fill="#155e75"/>
<text x="309" y="488" font-size="15" fill="#123">1</text>
</svg>
